<svg width="142" height="24" viewBox="0 0 142 24" fill="none" xmlns="http://www.w3.org/2000/svg">
<path d="M12.44 23L7.768 14.52H6.456V23H0.984V0.535999H10.168C11.9387 0.535999 13.4427 0.845332 14.68 1.464C15.9387 2.08267 16.8773 2.936 17.496 4.024C18.1147 5.09067 18.424 6.28533 18.424 7.608C18.424 9.10133 17.9973 10.4347 17.144 11.608C16.312 12.7813 15.0747 13.6133 13.432 14.104L18.616 23H12.44ZM6.456 10.648H9.848C10.8507 10.648 11.5973 10.4027 12.088 9.912C12.6 9.42133 12.856 8.728 12.856 7.832C12.856 6.97867 12.6 6.30667 12.088 5.816C11.5973 5.32533 10.8507 5.08 9.848 5.08H6.456V10.648ZM33.983 23.224C31.871 23.224 29.9297 22.7333 28.159 21.752C26.4097 20.7707 25.0123 19.4053 23.967 17.656C22.943 15.8853 22.431 13.9013 22.431 11.704C22.431 9.50667 22.943 7.53333 23.967 5.784C25.0123 4.03467 26.4097 2.66933 28.159 1.688C29.9297 0.706666 31.871 0.216 33.983 0.216C36.095 0.216 38.0257 0.706666 39.775 1.688C41.5457 2.66933 42.9323 4.03467 43.935 5.784C44.959 7.53333 45.471 9.50667 45.471 11.704C45.471 13.9013 44.959 15.8853 43.935 17.656C42.911 19.4053 41.5243 20.7707 39.775 21.752C38.0257 22.7333 36.095 23.224 33.983 23.224ZM33.983 18.232C35.775 18.232 37.2043 17.6347 38.271 16.44C39.359 15.2453 39.903 13.6667 39.903 11.704C39.903 9.72 39.359 8.14133 38.271 6.968C37.2043 5.77333 35.775 5.176 33.983 5.176C32.1697 5.176 30.719 5.76267 29.631 6.936C28.5643 8.10933 28.031 9.69867 28.031 11.704C28.031 13.688 28.5643 15.2773 29.631 16.472C30.719 17.6453 32.1697 18.232 33.983 18.232ZM55.4873 18.776H62.6553V23H50.0153V0.535999H55.4873V18.776ZM72.2373 18.776H79.4053V23H66.7653V0.535999H72.2373V18.776ZM88.9873 0.535999V23H83.5153V0.535999H88.9873ZM114.549 23H109.077L99.9248 9.144V23H94.4528V0.535999H99.9248L109.077 14.456V0.535999H114.549V23ZM134.927 7.64C134.522 6.89333 133.935 6.328 133.167 5.944C132.421 5.53867 131.535 5.336 130.511 5.336C128.741 5.336 127.322 5.92267 126.255 7.096C125.189 8.248 124.655 9.79467 124.655 11.736C124.655 13.8053 125.21 15.4267 126.319 16.6C127.45 17.752 128.997 18.328 130.959 18.328C132.303 18.328 133.434 17.9867 134.351 17.304C135.29 16.6213 135.973 15.64 136.399 14.36H129.455V10.328H141.359V15.416C140.954 16.7813 140.261 18.0507 139.279 19.224C138.319 20.3973 137.093 21.3467 135.599 22.072C134.106 22.7973 132.421 23.16 130.543 23.16C128.325 23.16 126.341 22.68 124.591 21.72C122.863 20.7387 121.509 19.384 120.527 17.656C119.567 15.928 119.087 13.9547 119.087 11.736C119.087 9.51733 119.567 7.544 120.527 5.816C121.509 4.06667 122.863 2.712 124.591 1.752C126.319 0.770665 128.293 0.279999 130.511 0.279999C133.199 0.279999 135.461 0.930665 137.295 2.232C139.151 3.53333 140.378 5.336 140.975 7.64H134.927Z" fill="url(#paint0_linear_102_247)"/>
<defs>
<linearGradient id="paint0_linear_102_247" x1="2" y1="4.33928" x2="128.82" y2="55.2084" gradientUnits="userSpaceOnUse">
<stop stop-color="#9B51E0"/>
<stop offset="1" stop-color="#3081ED"/>
</linearGradient>
</defs>
</svg>
